<svg width="20" height="20" viewBox="0 0 20 20" fill="none" xmlns="http://www.w3.org/2000/svg">
<path fill-rule="evenodd" clip-rule="evenodd" d="M10.8626 10.8625L18.1956 10.8626C18.7018 10.8626 19.1122 10.4522 19.1122 9.94592C19.1122 9.43969 18.7018 9.0293 18.1956 9.0293L10.8626 9.0293L10.8626 1.69629C10.8626 1.19006 10.4522 0.779668 9.94597 0.779668C9.43973 0.779667 9.02935 1.19006 9.02935 1.69629L9.02935 9.0293L1.69633 9.0293C1.19009 9.0293 0.779703 9.43968 0.779703 9.94592C0.779703 10.4522 1.19009 10.8625 1.69633 10.8625L9.02935 10.8625L9.02935 18.1956C9.02935 18.7018 9.43973 19.1122 9.94597 19.1122C10.4522 19.1122 10.8626 18.7018 10.8626 18.1956L10.8626 10.8625Z" fill="#EEEEEE"/>
</svg>
