<svg width="41" height="44" viewBox="0 0 41 44" fill="none" xmlns="http://www.w3.org/2000/svg">
<path d="M40.2156 6.808C39.2814 3.376 32.3288 0 20.1667 0C8.00455 0 1.05109 3.376 0.117773 6.808C0.0500133 6.9256 0 7.0544 0 7.2V7.6V16.8V17.2V17.6V26.4V26.8V27.2V36.8C0 36.9296 0.0346867 37.052 0.0943801 37.1608C1.04705 41.0768 9.57029 44 20.1667 44C30.7388 44 39.2484 41.0888 40.2325 37.1872C40.297 37.0728 40.3333 36.9408 40.3333 36.8V27.2V26.8V26.4V17.6V17.2V16.8V7.6V7.2C40.3333 7.0544 40.2833 6.9256 40.2156 6.808ZM38.6563 27.188C38.6337 27.2848 38.6022 27.3808 38.5627 27.4784C38.5304 27.5576 38.4909 27.6368 38.4473 27.716C38.3933 27.8144 38.3328 27.9128 38.261 28.0112C38.2078 28.0856 38.1473 28.1592 38.0843 28.2328C37.9948 28.3376 37.8996 28.4424 37.7915 28.5464C37.7262 28.6096 37.6544 28.672 37.5818 28.7352C37.4495 28.8496 37.3116 28.9632 37.1575 29.076C37.0913 29.1248 37.0204 29.172 36.9502 29.22C36.7679 29.3448 36.5775 29.4688 36.3686 29.5904C36.3137 29.6232 36.2548 29.6544 36.1976 29.6864C35.9572 29.8208 35.7063 29.9544 35.4353 30.084C35.4006 30.1008 35.3643 30.1168 35.3288 30.1328C35.0263 30.2744 34.7101 30.4136 34.3721 30.548C34.3624 30.552 34.3527 30.5552 34.343 30.5592C32.5111 31.2848 30.1677 31.8952 27.4372 32.2952C27.4234 32.2968 27.4097 32.2984 27.396 32.3008C26.8652 32.3784 26.3207 32.4472 25.7617 32.508C25.6706 32.5176 25.5746 32.524 25.4826 32.5336C24.9946 32.584 24.5009 32.6304 23.9927 32.6672C23.7604 32.684 23.5168 32.692 23.2804 32.7064C22.898 32.7288 22.5197 32.7536 22.1277 32.7672C21.4872 32.7872 20.8338 32.8 20.1667 32.8C19.4996 32.8 18.8462 32.7872 18.2049 32.7648C17.8128 32.7512 17.4345 32.7256 17.0521 32.704C16.8158 32.6904 16.5722 32.6816 16.3398 32.6648C15.8316 32.628 15.338 32.5816 14.8499 32.5312C14.758 32.5216 14.662 32.5152 14.5708 32.5056C14.0118 32.4448 13.4673 32.3752 12.9365 32.2984C12.9228 32.2968 12.9091 32.2952 12.8954 32.2928C10.1648 31.8928 7.82144 31.2824 5.9895 30.5568C5.97982 30.5536 5.97014 30.5496 5.96046 30.5456C5.62247 30.4112 5.30545 30.272 5.00375 30.1304C4.96907 30.1136 4.93196 30.0976 4.89727 30.0816C4.62623 29.952 4.37536 29.8192 4.13497 29.684C4.07851 29.652 4.01881 29.6208 3.96396 29.588C3.75503 29.4664 3.56466 29.3424 3.38235 29.2176C3.31298 29.1696 3.24119 29.1224 3.17504 29.0736C3.02097 28.9608 2.88303 28.8472 2.75073 28.7328C2.67894 28.6704 2.60634 28.608 2.541 28.544C2.43291 28.44 2.33772 28.336 2.24818 28.2304C2.18526 28.1568 2.12476 28.0832 2.07152 28.0088C2.00053 27.9104 1.94003 27.812 1.88518 27.7136C1.84162 27.6344 1.8029 27.5552 1.76983 27.476C1.7303 27.3792 1.69884 27.2824 1.67625 27.1856C1.64641 27.0584 1.61333 26.9288 1.61333 26.8C1.61333 26.7096 1.62382 26.6192 1.63834 26.5296C1.65851 26.4088 1.64721 26.288 1.61333 26.1736V20.2344C1.63592 20.2552 1.66415 20.2752 1.68755 20.296C1.8634 20.4496 2.04248 20.6024 2.24415 20.7496C5.28286 23.0288 11.3595 24.8 20.1667 24.8C28.9367 24.8 34.998 23.0432 38.0497 20.7776C38.2933 20.6016 38.5127 20.42 38.7192 20.2352L38.72 20.2344V26.1736C38.6861 26.288 38.6748 26.4088 38.695 26.5296C38.7103 26.6192 38.72 26.7096 38.72 26.8C38.72 26.9288 38.6869 27.0584 38.6563 27.188ZM38.72 10.6344V16.5736C38.6861 16.688 38.6748 16.8088 38.695 16.9296C38.7103 17.0192 38.72 17.1096 38.72 17.2C38.72 17.3288 38.6869 17.4584 38.6563 17.588C38.6337 17.6848 38.6022 17.7808 38.5627 17.8784C38.5304 17.9576 38.4909 18.0368 38.4473 18.116C38.3933 18.2144 38.3328 18.3128 38.261 18.4112C38.2078 18.4856 38.1473 18.5592 38.0843 18.6328C37.9948 18.7376 37.8996 18.8424 37.7915 18.9464C37.7262 19.0096 37.6544 19.072 37.5818 19.1352C37.4495 19.2496 37.3116 19.3632 37.1575 19.476C37.0913 19.5248 37.0204 19.572 36.9502 19.62C36.7679 19.7448 36.5775 19.8688 36.3686 19.9904C36.3137 20.0232 36.2548 20.0544 36.1976 20.0864C35.9572 20.2208 35.7063 20.3544 35.4353 20.484C35.4006 20.5008 35.3643 20.5168 35.3288 20.5328C35.0263 20.6744 34.7101 20.8136 34.3721 20.948C34.3624 20.952 34.3527 20.9552 34.343 20.9592C32.5111 21.6848 30.1677 22.2952 27.4372 22.6952C27.4234 22.6968 27.4097 22.6984 27.396 22.7008C26.8652 22.7784 26.3207 22.8472 25.7617 22.908C25.6706 22.9176 25.5746 22.924 25.4826 22.9336C24.9946 22.984 24.5009 23.0304 23.9927 23.0672C23.7604 23.084 23.5168 23.092 23.2804 23.1064C22.898 23.1288 22.5197 23.1536 22.1277 23.1672C21.4872 23.1872 20.8338 23.2 20.1667 23.2C19.4996 23.2 18.8462 23.1872 18.2049 23.1648C17.8128 23.1512 17.4345 23.1256 17.0521 23.104C16.8158 23.0904 16.5722 23.0816 16.3398 23.0648C15.8316 23.028 15.338 22.9816 14.8499 22.9312C14.758 22.9216 14.662 22.9152 14.5708 22.9056C14.0118 22.8448 13.4673 22.7752 12.9365 22.6984C12.9228 22.6968 12.9091 22.6952 12.8954 22.6928C10.1648 22.2928 7.82144 21.6824 5.9895 20.9568C5.97982 20.9536 5.97014 20.9496 5.96046 20.9456C5.62247 20.8112 5.30545 20.672 5.00375 20.5304C4.96907 20.5136 4.93196 20.4976 4.89727 20.4816C4.62623 20.352 4.37536 20.2192 4.13497 20.084C4.07851 20.052 4.01881 20.0208 3.96396 19.988C3.75503 19.8664 3.56466 19.7424 3.38235 19.6176C3.31298 19.5696 3.24119 19.5224 3.17504 19.4736C3.02097 19.3608 2.88303 19.2472 2.75073 19.1328C2.67894 19.0704 2.60634 19.008 2.541 18.944C2.43291 18.84 2.33772 18.736 2.24818 18.6304C2.18526 18.5568 2.12476 18.4832 2.07152 18.4088C2.00053 18.3104 1.94003 18.212 1.88518 18.1136C1.84162 18.0344 1.8029 17.9552 1.76983 17.876C1.7303 17.7792 1.69884 17.6824 1.67625 17.5856C1.64641 17.4584 1.61333 17.3288 1.61333 17.2C1.61333 17.1096 1.62382 17.0192 1.63834 16.9296C1.65851 16.8088 1.64721 16.688 1.61333 16.5736V10.6344C1.71013 10.7216 1.82065 10.8072 1.92551 10.8936C1.98359 10.9416 2.03764 10.9896 2.09895 11.0376C2.34095 11.2264 2.60231 11.4128 2.88545 11.5944C2.94433 11.632 3.01048 11.6688 3.07179 11.7064C3.30895 11.8528 3.55982 11.996 3.8236 12.1368C3.92121 12.1888 4.01881 12.24 4.11965 12.2912C4.41408 12.44 4.72303 12.5848 5.04812 12.7248C5.10136 12.748 5.14976 12.772 5.20381 12.7944C5.58213 12.9536 5.98385 13.1056 6.40171 13.2528C6.51706 13.2936 6.63806 13.332 6.75664 13.372C7.08899 13.4832 7.43263 13.5896 7.78837 13.6928C7.91663 13.7296 8.04247 13.768 8.17395 13.8032C8.64585 13.9328 9.13308 14.056 9.64451 14.1696C9.71469 14.1856 9.79051 14.1984 9.8615 14.2136C10.3124 14.3112 10.7803 14.4016 11.2611 14.4864C11.424 14.5152 11.5894 14.5424 11.7556 14.5696C12.2129 14.644 12.684 14.712 13.1672 14.7744C13.2914 14.7904 13.41 14.8088 13.5359 14.824C14.136 14.896 14.7572 14.9576 15.3952 15.0104C15.5525 15.0232 15.7163 15.0328 15.876 15.044C16.3866 15.0808 16.9085 15.1112 17.4426 15.1352C17.637 15.144 17.8306 15.1528 18.029 15.16C18.7243 15.1832 19.4326 15.2 20.1667 15.2C20.9007 15.2 21.609 15.1832 22.3043 15.16C22.502 15.1528 22.6956 15.144 22.8908 15.1352C23.4248 15.1112 23.9467 15.0808 24.4573 15.044C24.617 15.032 24.78 15.0232 24.9381 15.0104C25.5762 14.9584 26.1973 14.896 26.7975 14.824C26.9233 14.8088 27.0419 14.7904 27.1661 14.7744C27.6493 14.712 28.1196 14.644 28.5778 14.5696C28.7439 14.5424 28.9093 14.5152 29.0723 14.4864C29.553 14.4016 30.0209 14.3112 30.4718 14.2136C30.5428 14.1984 30.6186 14.1848 30.6888 14.1696C31.2003 14.056 31.6875 13.932 32.1594 13.8032C32.2909 13.7672 32.4167 13.7296 32.545 13.6928C32.9007 13.5896 33.2443 13.4832 33.5767 13.372C33.6953 13.332 33.8163 13.2936 33.9316 13.2528C34.3495 13.1056 34.752 12.9536 35.1295 12.7944C35.1836 12.772 35.232 12.748 35.2852 12.7248C35.6103 12.584 35.9193 12.44 36.2137 12.2912C36.3145 12.24 36.4129 12.1888 36.5097 12.1368C36.7735 11.9968 37.0244 11.8536 37.2615 11.7064C37.3229 11.6688 37.389 11.632 37.4479 11.5944C37.731 11.4128 37.9924 11.2272 38.2344 11.0376C38.2949 10.9896 38.3489 10.9416 38.4078 10.8936C38.5127 10.8072 38.6232 10.7216 38.72 10.6344ZM20.1667 1.6C31.101 1.6 38.72 4.7616 38.72 7.6C38.72 10.4384 31.101 13.6 20.1667 13.6C9.2323 13.6 1.61333 10.4384 1.61333 7.6C1.61333 4.7616 9.2323 1.6 20.1667 1.6ZM38.72 36.5624C38.7087 36.5976 38.7006 36.6336 38.6942 36.6704C38.2368 39.4376 30.6824 42.4 20.1667 42.4C9.65096 42.4 2.09653 39.4376 1.63915 36.6704C1.63269 36.6344 1.62382 36.5992 1.61333 36.5656V29.8344C1.63592 29.8552 1.66415 29.8752 1.68755 29.896C1.8634 30.0496 2.04248 30.2024 2.24415 30.3496C5.28286 32.6288 11.3595 34.4 20.1667 34.4C28.9367 34.4 34.998 32.6432 38.0497 30.3776C38.2933 30.2016 38.5127 30.02 38.7192 29.8352L38.72 29.8344V36.5624Z" fill="#D8C200"/>
</svg>
