<svg width="24" height="24" viewBox="0 0 24 24" fill="none" xmlns="http://www.w3.org/2000/svg">
<path d="M15.6667 12C15.6667 14.025 14.025 15.6667 12 15.6667C9.97496 15.6667 8.33333 14.025 8.33333 12C8.33333 9.97496 9.97496 8.33333 12 8.33333C14.025 8.33333 15.6667 9.97496 15.6667 12Z" fill="#D8C200"/>
<path d="M13.1056 1.07339C12.8541 1 12.5694 1 12 1C11.4306 1 11.1459 1 10.8944 1.07339C10.5262 1.18081 10.201 1.40098 9.96455 1.70291C9.80299 1.90918 9.69726 2.17353 9.48578 2.70221C9.18179 3.46219 8.33814 3.85353 7.56159 3.59478L6.86396 3.36232C6.3691 3.19737 6.12166 3.11489 5.87906 3.10075C5.5227 3.07999 5.16803 3.16372 4.85857 3.34166C4.64791 3.46279 4.46348 3.64722 4.09463 4.01607C3.7026 4.4081 3.50658 4.60412 3.38206 4.82786C3.19911 5.15658 3.12172 5.53363 3.16038 5.90784C3.1867 6.16255 3.28965 6.41993 3.49556 6.93469C3.81802 7.74084 3.5078 8.66185 2.76332 9.10863L2.42415 9.31218C1.90482 9.62377 1.64516 9.77957 1.45655 9.99407C1.28964 10.1839 1.16379 10.4062 1.08689 10.647C1 10.9191 1 11.2249 1 11.8365C1 12.5608 1 12.923 1.11565 13.2329C1.21784 13.5068 1.38404 13.7523 1.6004 13.9489C1.84526 14.1714 2.17816 14.3046 2.84392 14.5709C3.5243 14.8431 3.87462 15.5984 3.64289 16.2936L3.37993 17.0824C3.19778 17.6289 3.10671 17.9021 3.09843 18.1705C3.08847 18.4933 3.16393 18.8129 3.31718 19.0971C3.44463 19.3335 3.64828 19.5372 4.05555 19.9444C4.46284 20.3517 4.66648 20.5554 4.90286 20.6828C5.18709 20.8361 5.50674 20.9115 5.82949 20.9016C6.09792 20.8933 6.37113 20.8022 6.91756 20.6201L7.56164 20.4054C8.33814 20.1465 9.1818 20.5378 9.48578 21.2978C9.69726 21.8265 9.80299 22.0908 9.96455 22.2971C10.201 22.599 10.5262 22.8192 10.8944 22.9266C11.1459 23 11.4306 23 12 23C12.5694 23 12.8541 23 13.1056 22.9266C13.4738 22.8192 13.799 22.599 14.0355 22.2971C14.197 22.0908 14.3027 21.8265 14.5142 21.2978C14.8182 20.5379 15.6619 20.1466 16.4383 20.4055L17.0819 20.6202C17.6284 20.8023 17.9016 20.8934 18.17 20.9017C18.4928 20.9116 18.8124 20.8362 19.0966 20.6829C19.333 20.5555 19.5367 20.3518 19.9439 19.9445C20.3512 19.5373 20.5549 19.3336 20.6823 19.0972C20.8356 18.813 20.911 18.4934 20.9011 18.1706C20.8928 17.9022 20.8017 17.6289 20.6196 17.0825L20.3568 16.2941C20.125 15.5987 20.4754 14.8431 21.1561 14.5709C21.8218 14.3046 22.1547 14.1714 22.3996 13.9489C22.616 13.7523 22.7822 13.5068 22.8844 13.2329C23 12.923 23 12.5608 23 11.8365C23 11.2249 23 10.9191 22.9131 10.647C22.8362 10.4062 22.7104 10.1839 22.5434 9.99407C22.3548 9.77957 22.0952 9.62377 21.5759 9.31218L21.2362 9.10841C20.4917 8.66171 20.1815 7.74073 20.5039 6.9346C20.7098 6.41985 20.8128 6.16245 20.8391 5.90775C20.8778 5.53354 20.8004 5.15649 20.6174 4.82777C20.4929 4.60402 20.2969 4.40801 19.9049 4.01598C19.536 3.64714 19.3516 3.4627 19.1409 3.34157C18.8315 3.16363 18.4768 3.0799 18.1204 3.10066C17.8778 3.11479 17.6304 3.19727 17.1355 3.36223L16.4384 3.59462C15.6619 3.85345 14.8182 3.46216 14.5142 2.70221C14.3027 2.17352 14.197 1.90918 14.0355 1.70291C13.799 1.40098 13.4738 1.18081 13.1056 1.07339Z" fill="#D8C200"/>
<path d="M15.6667 12C15.6667 14.025 14.025 15.6667 12 15.6667C9.97496 15.6667 8.33333 14.025 8.33333 12C8.33333 9.97496 9.97496 8.33333 12 8.33333C14.025 8.33333 15.6667 9.97496 15.6667 12Z" stroke="#4B4B4B" stroke-width="2" stroke-linecap="round" stroke-linejoin="round"/>
<path d="M13.1056 1.07339C12.8541 1 12.5694 1 12 1C11.4306 1 11.1459 1 10.8944 1.07339C10.5262 1.18081 10.201 1.40098 9.96455 1.70291C9.80299 1.90918 9.69726 2.17353 9.48578 2.70221C9.18179 3.46219 8.33814 3.85353 7.56159 3.59478L6.86396 3.36232C6.3691 3.19737 6.12166 3.11489 5.87906 3.10075C5.5227 3.07999 5.16803 3.16372 4.85857 3.34166C4.64791 3.46279 4.46348 3.64722 4.09463 4.01607C3.7026 4.4081 3.50658 4.60412 3.38206 4.82786C3.19911 5.15658 3.12172 5.53363 3.16038 5.90784C3.1867 6.16255 3.28965 6.41993 3.49556 6.93469C3.81802 7.74084 3.5078 8.66185 2.76332 9.10863L2.42415 9.31218C1.90482 9.62377 1.64516 9.77957 1.45655 9.99407C1.28964 10.1839 1.16379 10.4062 1.08689 10.647C1 10.9191 1 11.2249 1 11.8365C1 12.5608 1 12.923 1.11565 13.2329C1.21784 13.5068 1.38404 13.7523 1.6004 13.9489C1.84526 14.1714 2.17816 14.3046 2.84392 14.5709C3.5243 14.8431 3.87462 15.5984 3.64289 16.2936L3.37993 17.0824C3.19778 17.6289 3.10671 17.9021 3.09843 18.1705C3.08847 18.4933 3.16393 18.8129 3.31718 19.0971C3.44463 19.3335 3.64828 19.5372 4.05555 19.9444C4.46284 20.3517 4.66648 20.5554 4.90286 20.6828C5.18709 20.8361 5.50674 20.9115 5.82949 20.9016C6.09792 20.8933 6.37113 20.8022 6.91756 20.6201L7.56164 20.4054C8.33814 20.1465 9.1818 20.5378 9.48578 21.2978C9.69726 21.8265 9.80299 22.0908 9.96455 22.2971C10.201 22.599 10.5262 22.8192 10.8944 22.9266C11.1459 23 11.4306 23 12 23C12.5694 23 12.8541 23 13.1056 22.9266C13.4738 22.8192 13.799 22.599 14.0355 22.2971C14.197 22.0908 14.3027 21.8265 14.5142 21.2978C14.8182 20.5379 15.6619 20.1466 16.4383 20.4055L17.0819 20.6202C17.6284 20.8023 17.9016 20.8934 18.17 20.9017C18.4928 20.9116 18.8124 20.8362 19.0966 20.6829C19.333 20.5555 19.5367 20.3518 19.9439 19.9445C20.3512 19.5373 20.5549 19.3336 20.6823 19.0972C20.8356 18.813 20.911 18.4934 20.9011 18.1706C20.8928 17.9022 20.8017 17.6289 20.6196 17.0825L20.3568 16.2941C20.125 15.5987 20.4754 14.8431 21.1561 14.5709C21.8218 14.3046 22.1547 14.1714 22.3996 13.9489C22.616 13.7523 22.7822 13.5068 22.8844 13.2329C23 12.923 23 12.5608 23 11.8365C23 11.2249 23 10.9191 22.9131 10.647C22.8362 10.4062 22.7104 10.1839 22.5434 9.99407C22.3548 9.77957 22.0952 9.62377 21.5759 9.31218L21.2362 9.10841C20.4917 8.66171 20.1815 7.74073 20.5039 6.9346C20.7098 6.41985 20.8128 6.16245 20.8391 5.90775C20.8778 5.53354 20.8004 5.15649 20.6174 4.82777C20.4929 4.60402 20.2969 4.40801 19.9049 4.01598C19.536 3.64714 19.3516 3.4627 19.1409 3.34157C18.8315 3.16363 18.4768 3.0799 18.1204 3.10066C17.8778 3.11479 17.6304 3.19727 17.1355 3.36223L16.4384 3.59462C15.6619 3.85345 14.8182 3.46216 14.5142 2.70221C14.3027 2.17352 14.197 1.90918 14.0355 1.70291C13.799 1.40098 13.4738 1.18081 13.1056 1.07339Z" stroke="#4B4B4B" stroke-width="2" stroke-linecap="round" stroke-linejoin="round"/>
</svg>
