<svg width="26" height="24" viewBox="0 0 26 24" fill="none" xmlns="http://www.w3.org/2000/svg">
<path d="M23 12.6471C23 18.3648 18.3648 23 12.6471 23C6.92929 23 2.29412 18.3648 2.29412 12.6471C2.29412 6.92929 6.92929 2.29412 12.6471 2.29412C18.3648 2.29412 23 6.92929 23 12.6471Z" fill="#D8C200"/>
<path d="M1 3.58824L3.58824 1M24.2941 3.58824L21.7059 1M12.6471 7.47059V12.6471L15.8824 15.8824M23 12.6471C23 18.3648 18.3648 23 12.6471 23C6.92929 23 2.29412 18.3648 2.29412 12.6471C2.29412 6.92929 6.92929 2.29412 12.6471 2.29412C18.3648 2.29412 23 6.92929 23 12.6471Z" stroke="#4B4B4B" stroke-width="2" stroke-linecap="round" stroke-linejoin="round"/>
</svg>
