<svg width="25" height="24" viewBox="0 0 25 24" fill="none" xmlns="http://www.w3.org/2000/svg">
<path d="M1 12.1183V15.1484C1 17.8967 1 19.2709 1.53486 20.3206C2.00534 21.2439 2.75606 21.9947 3.67942 22.4651C4.72914 23 6.10331 23 8.85164 23H15.2311C17.9794 23 19.3536 23 20.4033 22.4651C21.3267 21.9947 22.0774 21.2439 22.5479 20.3206C23.0827 19.2709 23.0827 17.8967 23.0827 15.1484V12.1183C23.0827 10.709 23.0827 10.0044 22.9011 9.35548C22.7402 8.78067 22.4758 8.24004 22.1209 7.76014C21.7201 7.21837 21.1639 6.78577 20.0515 5.92057L16.8618 3.43967C15.1378 2.09875 14.2757 1.42828 13.3239 1.17055C12.484 0.943149 11.5988 0.943149 10.7589 1.17055C9.80701 1.42828 8.94498 2.09874 7.22093 3.43967L4.0312 5.92057C2.9188 6.78577 2.3626 7.21837 1.96189 7.76014C1.60695 8.24004 1.34253 8.78067 1.18164 9.35548C1 10.0044 1 10.709 1 12.1183Z" fill="#D8C200"/>
<path d="M8.36091 18.0927H15.7218M1 15.1484V12.1183C1 10.709 1 10.0044 1.18164 9.35548C1.34253 8.78067 1.60695 8.24004 1.96189 7.76014C2.3626 7.21837 2.9188 6.78577 4.0312 5.92057L7.22093 3.43967C8.94498 2.09874 9.80701 1.42828 10.7589 1.17055C11.5988 0.943149 12.484 0.943149 13.3239 1.17055C14.2757 1.42828 15.1378 2.09875 16.8618 3.43967L20.0515 5.92057C21.1639 6.78577 21.7201 7.21837 22.1209 7.76014C22.4758 8.24004 22.7402 8.78067 22.9011 9.35548C23.0827 10.0044 23.0827 10.709 23.0827 12.1183V15.1484C23.0827 17.8967 23.0827 19.2709 22.5479 20.3206C22.0774 21.2439 21.3267 21.9947 20.4033 22.4651C19.3536 23 17.9794 23 15.2311 23H8.85164C6.10331 23 4.72914 23 3.67942 22.4651C2.75606 21.9947 2.00534 21.2439 1.53486 20.3206C1 19.2709 1 17.8967 1 15.1484Z" stroke="#4B4B4B" stroke-width="2" stroke-linecap="round" stroke-linejoin="round"/>
</svg>
