<svg width="21" height="23" viewBox="0 0 21 23" fill="none" xmlns="http://www.w3.org/2000/svg">
<path fill-rule="evenodd" clip-rule="evenodd" d="M4.74114 5.75709C4.74114 2.57754 7.31867 0 10.4982 0C13.6778 0 16.2553 2.57754 16.2553 5.75709C16.2553 8.93665 13.6778 11.5142 10.4982 11.5142C7.31867 11.5142 4.74114 8.93665 4.74114 5.75709ZM10.4982 2.03192C8.44087 2.03192 6.77305 3.69973 6.77305 5.75709C6.77305 7.81445 8.44087 9.48227 10.4982 9.48227C12.5556 9.48227 14.2234 7.81445 14.2234 5.75709C14.2234 3.69973 12.5556 2.03192 10.4982 2.03192Z" fill="#2C2C2C"/>
<path fill-rule="evenodd" clip-rule="evenodd" d="M5.07979 15.578C3.39649 15.578 2.03192 16.9426 2.03192 18.6259V20.2355C2.03192 20.2601 2.04968 20.281 2.07387 20.2849C7.65317 21.1958 13.3433 21.1958 18.9226 20.2849C18.9468 20.281 18.9645 20.2601 18.9645 20.2355V18.6259C18.9645 16.9426 17.6 15.578 15.9167 15.578H15.4549C15.4192 15.578 15.3837 15.5837 15.3498 15.5947L14.1774 15.9776C11.7867 16.7582 9.20974 16.7582 6.81909 15.9776L5.64665 15.5947C5.61271 15.5837 5.57723 15.578 5.54153 15.578H5.07979ZM0 18.6259C0 15.8204 2.2743 13.5461 5.07979 13.5461H5.54153C5.79145 13.5461 6.03979 13.5856 6.27736 13.6632L7.4498 14.046C9.43062 14.6928 11.5658 14.6928 13.5467 14.046L14.7191 13.6632C14.9567 13.5856 15.205 13.5461 15.4549 13.5461H15.9167C18.7222 13.5461 20.9965 15.8204 20.9965 18.6259V20.2355C20.9965 21.2559 20.257 22.1259 19.25 22.2903C13.4539 23.2366 7.5426 23.2366 1.74646 22.2903C0.739459 22.1259 0 21.2559 0 20.2355V18.6259Z" fill="#2C2C2C"/>
</svg>
